<?xml version="1.0" encoding="UTF-8"?>
<svg width="662px" height="475px" viewBox="0 0 662 475" version="1.1" xmlns="http://www.w3.org/2000/svg" xmlns:xlink="http://www.w3.org/1999/xlink">
    <!-- Generator: Sketch 49.2 (51160) - http://www.bohemiancoding.com/sketch -->
    <title>successful_bg</title>
    <desc>Created with Sketch.</desc>
    <defs>
        <path d="M8.09016121,0.787802703 L36.2526796,0.787802703 C39.1318034,0.787802703 41.4657944,3.11032556 41.4657944,5.9753027 L41.4657944,31.2460458 C41.4657944,48.067669 27.7618398,61.7042889 10.8571551,61.7042889 L0.890236704,61.7042889 L8.09016121,0.787802703 Z M8.18286779,10.2788642 L5.58777814,52.1900557 L12.9542794,50.1362271 C23.1462516,47.2946388 30.415357,38.3469163 31.071943,27.8347446 L31.996422,13.0335123 C31.9997679,12.9799442 32.001442,12.9262857 32.001442,12.8726142 C32.001442,11.4401256 30.8344465,10.2788642 29.3948846,10.2788642 L8.18286779,10.2788642 Z" id="path-1"></path>
        <filter x="-7.4%" y="-4.9%" width="114.8%" height="109.8%" filterUnits="objectBoundingBox" id="filter-2">
            <feOffset dx="-6" dy="0" in="SourceAlpha" result="shadowOffsetInner1"></feOffset>
            <feComposite in="shadowOffsetInner1" in2="SourceAlpha" operator="arithmetic" k2="-1" k3="1" result="shadowInnerInner1"></feComposite>
            <feColorMatrix values="0 0 0 0 0   0 0 0 0 0   0 0 0 0 0  0 0 0 0.08 0" type="matrix" in="shadowInnerInner1"></feColorMatrix>
        </filter>
        <path d="M80.4815045,0.653104788 L123.789467,0.653104788 C125.225407,0.653104788 126.389467,1.81716444 126.389467,3.25310479 L126.389467,46.146295 C126.389467,58.7212868 121.647098,70.5142839 112.162361,81.5252864 C99.0007851,96.804798 85.6170547,99.1150006 87.4858776,117.26645 L80.7747124,117.319684 L80.6281084,117.320846 L80.4815045,117.322009 L73.7703393,117.26645 C75.6391622,99.1150006 62.2554318,96.804798 49.0938557,81.5252864 C39.6091188,70.5142839 34.8667504,58.7212868 34.8667504,46.146295 L34.8667504,3.25310479 C34.8667504,1.81716444 36.03081,0.653104788 37.4667504,0.653104788 L80.4815045,0.653104788 Z" id="path-3"></path>
        <filter x="-3.3%" y="-2.6%" width="106.6%" height="105.1%" filterUnits="objectBoundingBox" id="filter-4">
            <feOffset dx="6" dy="0" in="SourceAlpha" result="shadowOffsetInner1"></feOffset>
            <feComposite in="shadowOffsetInner1" in2="SourceAlpha" operator="arithmetic" k2="-1" k3="1" result="shadowInnerInner1"></feComposite>
            <feColorMatrix values="0 0 0 0 0   0 0 0 0 0   0 0 0 0 0  0 0 0 0.08 0" type="matrix" in="shadowInnerInner1"></feColorMatrix>
        </filter>
        <radialGradient cx="50%" cy="50%" fx="50%" fy="50%" r="150.373659%" gradientTransform="translate(0.500000,0.500000),scale(1.000000,0.660355),rotate(90.000000),translate(-0.500000,-0.500000)" id="radialGradient-5">
            <stop stop-color="#FFFFFF" offset="0%"></stop>
            <stop stop-color="#FFFFFF" stop-opacity="0" offset="100%"></stop>
        </radialGradient>
        <path d="M101.250185,61.3785436 L94.8035739,31.9686694 C94.7814463,31.8683205 94.7399146,31.7738951 94.6810212,31.6909679 L81.5100122,13.1212069 C81.3711191,12.9257358 81.149503,12.8100559 80.9135891,12.8100559 C80.6776752,12.8100559 80.4557187,12.9257358 80.3171661,13.1212069 L67.1461571,31.6909679 C67.0872637,31.7738951 67.0453915,31.8683205 67.023264,31.9686694 L60.5766525,61.3785436 C60.5075464,61.6949212 60.6433756,62.0210549 60.9140128,62.1889998 L80.5316333,74.3489789 C80.5404843,74.3542054 80.5496758,74.3580382 80.5585268,74.3629163 C80.5711225,74.3698849 80.5837182,74.3768536 80.5969947,74.3831254 C80.6174202,74.39323 80.6378456,74.4019408 80.6592923,74.4099548 C80.6722284,74.4148329 80.6848241,74.4197109 80.6981007,74.4238921 C80.7215899,74.4312092 80.7447388,74.4364357 80.7685685,74.4413138 C80.7804833,74.4437528 80.7923982,74.4472372 80.804313,74.4489793 C80.840398,74.4545543 80.8771638,74.4576902 80.9135891,74.4576902 C80.9500145,74.4576902 80.9864399,74.4545543 81.0225249,74.4489793 C81.0347801,74.4472372 81.0463545,74.4437528 81.0582694,74.4413138 C81.0820991,74.4364357 81.1055883,74.4312092 81.1287372,74.4238921 C81.1420137,74.4197109 81.1549498,74.4148329 81.1682264,74.4099548 C81.1889922,74.4019408 81.2097581,74.39323 81.2301836,74.3831254 C81.2431197,74.3768536 81.2557154,74.3698849 81.2686515,74.3629163 C81.2771621,74.3580382 81.2863535,74.3542054 81.2952046,74.3489789 L100.913165,62.1889998 C101.183803,62.0210549 101.319632,61.6949212 101.250185,61.3785436 Z" id="path-6"></path>
        <filter x="-88.4%" y="-58.4%" width="276.9%" height="216.8%" filterUnits="objectBoundingBox" id="filter-7">
            <feMorphology radius="3" operator="dilate" in="SourceAlpha" result="shadowSpreadOuter1"></feMorphology>
            <feOffset dx="0" dy="0" in="shadowSpreadOuter1" result="shadowOffsetOuter1"></feOffset>
            <feGaussianBlur stdDeviation="9" in="shadowOffsetOuter1" result="shadowBlurOuter1"></feGaussianBlur>
            <feColorMatrix values="0 0 0 0 1   0 0 0 0 1   0 0 0 0 1  0 0 0 1 0" type="matrix" in="shadowBlurOuter1"></feColorMatrix>
        </filter>
    </defs>
    <g id="Page-1" stroke="none" stroke-width="1" fill="none" fill-rule="evenodd">
        <g id="2" transform="translate(-250.000000, -154.000000)">
            <g id="Group-2" transform="translate(250.000000, 154.000000)">
                <g id="Group-5" opacity="0.4" transform="translate(9.000000, 6.000000)">
                    <g id="Group-4" opacity="0.0982223732" transform="translate(163.000000, 149.000000)" fill="#F3F6FB">
                        <path d="M282.248747,86.8 L245.65376,86.8 C239.412943,86.8 234.35376,91.8591823 234.35376,98.1 C234.35376,104.340818 239.412943,109.4 245.65376,109.4 L274.75571,109.4 L267.262674,109.4 C273.503492,109.4 278.562674,114.459182 278.562674,120.7 C278.562674,126.940818 273.503492,132 267.262674,132 L155.737326,132 C149.496508,132 144.437326,126.940818 144.437326,120.7 C144.437326,114.459182 149.496508,109.4 155.737326,109.4 L148.24429,109.4 L177.34624,109.4 C183.587057,109.4 188.64624,104.340818 188.64624,98.1 C188.64624,91.8591823 183.587057,86.8 177.34624,86.8 L140.751253,86.8 L88.3,86.8 C82.0591823,86.8 77,81.7408177 77,75.5 C77,69.2591823 82.0591823,64.2 88.3,64.2 L140.751253,64.2 L154.867131,64.2 C161.107949,64.2 166.167131,59.1408177 166.167131,52.9 C166.167131,46.6591823 161.107949,41.6 154.867131,41.6 L140.751253,41.6 L88.3,41.6 C82.0591823,41.6 77,36.5408177 77,30.3 C77,24.0591823 82.0591823,19 88.3,19 L334.7,19 C340.940818,19 346,24.0591823 346,30.3 C346,36.5408177 340.940818,41.6 334.7,41.6 L282.248747,41.6 L268.132869,41.6 C261.892051,41.6 256.832869,46.6591823 256.832869,52.9 C256.832869,59.1408177 261.892051,64.2 268.132869,64.2 L282.248747,64.2 L334.7,64.2 C340.940818,64.2 346,69.2591823 346,75.5 C346,81.7408177 340.940818,86.8 334.7,86.8 L282.248747,86.8 Z" id="Combined-Shape" transform="translate(211.500000, 75.500000) rotate(-8.000000) translate(-211.500000, -75.500000) "></path>
                        <path d="M212.248747,138.8 L175.65376,138.8 C169.412943,138.8 164.35376,143.859182 164.35376,150.1 C164.35376,156.340818 169.412943,161.4 175.65376,161.4 L204.75571,161.4 L197.262674,161.4 C203.503492,161.4 208.562674,166.459182 208.562674,172.7 C208.562674,178.940818 203.503492,184 197.262674,184 L85.7373259,184 C79.4965082,184 74.4373259,178.940818 74.4373259,172.7 C74.4373259,166.459182 79.4965082,161.4 85.7373259,161.4 L78.2442897,161.4 L107.34624,161.4 C113.587057,161.4 118.64624,156.340818 118.64624,150.1 C118.64624,143.859182 113.587057,138.8 107.34624,138.8 L70.7512535,138.8 L18.3,138.8 C12.0591823,138.8 7,133.740818 7,127.5 C7,121.259182 12.0591823,116.2 18.3,116.2 L70.7512535,116.2 L84.8671309,116.2 C91.1079486,116.2 96.1671309,111.140818 96.1671309,104.9 C96.1671309,98.6591823 91.1079486,93.6 84.8671309,93.6 L70.7512535,93.6 L18.3,93.6 C12.0591823,93.6 7,88.5408177 7,82.3 C7,76.0591823 12.0591823,71 18.3,71 L264.7,71 C270.940818,71 276,76.0591823 276,82.3 C276,88.5408177 270.940818,93.6 264.7,93.6 L212.248747,93.6 L198.132869,93.6 C191.892051,93.6 186.832869,98.6591823 186.832869,104.9 C186.832869,111.140818 191.892051,116.2 198.132869,116.2 L212.248747,116.2 L264.7,116.2 C270.940818,116.2 276,121.259182 276,127.5 C276,133.740818 270.940818,138.8 264.7,138.8 L212.248747,138.8 Z" id="Combined-Shape-Copy" transform="translate(141.500000, 127.500000) scale(-1, -1) rotate(-8.000000) translate(-141.500000, -127.500000) "></path>
                    </g>
                    <circle id="Oval-2" fill="#5374FC" opacity="0.300158514" cx="41" cy="7" r="7"></circle>
                    <path d="M97.9246212,193.424621 C100.626514,190.757955 103.565027,190.757955 106.740158,193.424621 C109.91529,196.091288 112.643444,196.091288 114.924621,193.424621" id="Path-5" stroke="#5374FC" stroke-width="3.6" stroke-linecap="round" stroke-linejoin="round" transform="translate(106.424621, 193.424621) rotate(45.000000) translate(-106.424621, -193.424621) "></path>
                    <circle id="Oval-4" stroke="#6800FC" stroke-width="3" opacity="0.557518116" stroke-linecap="round" stroke-linejoin="round" cx="595" cy="436" r="4"></circle>
                    <path d="M9.9246212,109.424621 C12.6265143,106.757955 15.5650267,106.757955 18.7401584,109.424621 C21.9152901,112.091288 24.6434444,112.091288 26.9246212,109.424621" id="Path-5-Copy-2" stroke="#F3F6FB" stroke-width="3.6" opacity="0.100000001" stroke-linecap="round" stroke-linejoin="round" transform="translate(18.424621, 109.424621) rotate(65.000000) translate(-18.424621, -109.424621) "></path>
                    <polygon id="Star-3" fill="#EA4C4C" opacity="0.56493433" transform="translate(246.020815, 21.020815) rotate(45.000000) translate(-246.020815, -21.020815) " points="246.020815 25.2708153 241.024641 27.8974597 241.978825 22.3341375 237.936835 18.3941708 243.522728 17.5824931 246.020815 12.5208153 248.518903 17.5824931 254.104796 18.3941708 250.062805 22.3341375 251.01699 27.8974597"></polygon>
                    <polygon id="Star-3-Copy" fill="#F3F6FB" opacity="0.265851449" transform="translate(288.020815, 100.520815) rotate(45.000000) translate(-288.020815, -100.520815) " points="288.020815 104.770815 283.024641 107.39746 283.978825 101.834138 279.936835 97.8941708 285.522728 97.0824931 288.020815 92.0208153 290.518903 97.0824931 296.104796 97.8941708 292.062805 101.834138 293.01699 107.39746"></polygon>
                    <path d="M394.606602,140.606602 L398.106602,140.606602 C399.211171,140.606602 400.106602,141.502032 400.106602,142.606602 C400.106602,143.711171 399.211171,144.606602 398.106602,144.606602 L394.606602,144.606602 L394.606602,148.106602 C394.606602,149.211171 393.711171,150.106602 392.606602,150.106602 C391.502032,150.106602 390.606602,149.211171 390.606602,148.106602 L390.606602,144.606602 L387.106602,144.606602 C386.002032,144.606602 385.106602,143.711171 385.106602,142.606602 C385.106602,141.502032 386.002032,140.606602 387.106602,140.606602 L390.606602,140.606602 L390.606602,137.106602 C390.606602,136.002032 391.502032,135.106602 392.606602,135.106602 C393.711171,135.106602 394.606602,136.002032 394.606602,137.106602 L394.606602,140.606602 Z" id="Combined-Shape" fill="#00BD2A" transform="translate(392.606602, 142.606602) rotate(45.000000) translate(-392.606602, -142.606602) "></path>
                    <rect id="Rectangle-4" stroke="#979797" fill="#D8D8D8" x="400.495689" y="135.889087" width="4" height="15" rx="2"></rect>
                    <rect id="Rectangle-4-Copy" stroke="#979797" fill="#D8D8D8" x="400.495689" y="135.889087" width="4" height="15" rx="2"></rect>
                    <path d="M381.126673,431.19334 L383.69334,431.19334 C384.503358,431.19334 385.160007,431.849989 385.160007,432.660007 C385.160007,433.470024 384.503358,434.126673 383.69334,434.126673 L381.126673,434.126673 L381.126673,436.69334 C381.126673,437.503358 380.470024,438.160007 379.660007,438.160007 C378.849989,438.160007 378.19334,437.503358 378.19334,436.69334 L378.19334,434.126673 L375.626673,434.126673 C374.816656,434.126673 374.160007,433.470024 374.160007,432.660007 C374.160007,431.849989 374.816656,431.19334 375.626673,431.19334 L378.19334,431.19334 L378.19334,428.626673 C378.19334,427.816656 378.849989,427.160007 379.660007,427.160007 C380.470024,427.160007 381.126673,427.816656 381.126673,428.626673 L381.126673,431.19334 Z" id="Combined-Shape-Copy-2" fill="#FF0000" opacity="0.674592391" transform="translate(379.660007, 432.660007) rotate(35.000000) translate(-379.660007, -432.660007) "></path>
                    <rect id="Rectangle-4" stroke="#979797" fill="#D8D8D8" x="331.613254" y="447.313425" width="2.93333333" height="11" rx="1.46666667"></rect>
                    <rect id="Rectangle-4-Copy" stroke="#979797" fill="#D8D8D8" x="331.613254" y="447.313425" width="2.93333333" height="11" rx="1.46666667"></rect>
                    <path d="M55.5096208,397.430881 C56.1574488,396.430881 57.0179415,396.421502 58.0910991,397.402745 C59.0290162,398.421502 59.8490448,398.930881 60.5511849,398.930881 C61.253325,398.930881 62.0706882,398.403656 63.0032743,397.349206 C63.8465162,396.403656 64.6860085,395.930881 65.5217514,395.930881 C66.3574943,395.930881 67.1824635,396.403656 67.996659,397.349206 C68.8638289,398.403656 69.7079655,398.930881 70.5290686,398.930881 C71.3501717,398.930881 72.167779,398.403656 72.9818904,397.349206 C73.8412392,396.403656 74.6870489,395.930881 75.5193196,395.930881 C76.3515902,395.930881 77.1734368,396.403656 77.9848593,397.349206 C78.4696735,398.073181 78.9779274,398.435168 79.5096208,398.435168" id="Path-6" stroke="#6800FC" stroke-width="3" stroke-linecap="round" stroke-linejoin="round" transform="translate(67.509621, 397.430881) rotate(25.000000) translate(-67.509621, -397.430881) "></path>
                    <path d="M546.509621,219.430881 C547.157449,218.430881 548.017942,218.421502 549.091099,219.402745 C550.029016,220.421502 550.849045,220.930881 551.551185,220.930881 C552.253325,220.930881 553.070688,220.403656 554.003274,219.349206 C554.846516,218.403656 555.686009,217.930881 556.521751,217.930881 C557.357494,217.930881 558.182463,218.403656 558.996659,219.349206 C559.863829,220.403656 560.707965,220.930881 561.529069,220.930881 C562.350172,220.930881 563.167779,220.403656 563.98189,219.349206 C564.841239,218.403656 565.687049,217.930881 566.51932,217.930881 C567.35159,217.930881 568.173437,218.403656 568.984859,219.349206 C569.469674,220.073181 569.977927,220.435168 570.509621,220.435168" id="Path-6-Copy" stroke="#E9007F" stroke-width="4" stroke-linecap="round" stroke-linejoin="round" transform="translate(558.509621, 219.430881) rotate(-25.000000) translate(-558.509621, -219.430881) "></path>
                    <g id="Group-3" transform="translate(259.000000, 156.000000)"></g>
                    <circle id="Oval-3" stroke="#00FF89" stroke-width="4" opacity="0.418817935" cx="468" cy="28" r="7"></circle>
                    <rect id="Rectangle-6" stroke="#FF0000" stroke-width="4" transform="translate(6.594302, 269.594302) rotate(6.000000) translate(-6.594302, -269.594302) " x="0.594302152" y="263.594302" width="12" height="12"></rect>
                    <circle id="Oval-2" fill="#5374FC" transform="translate(201.000000, 167.000000) scale(-1, 1) translate(-201.000000, -167.000000) " cx="201" cy="167" r="7"></circle>
                    <path d="M463.924621,260.424621 C466.626514,257.757955 469.565027,257.757955 472.740158,260.424621 C475.91529,263.091288 478.643444,263.091288 480.924621,260.424621" id="Path-5" stroke="#5374FC" stroke-width="3.6" stroke-linecap="round" stroke-linejoin="round" transform="translate(472.424621, 260.424621) scale(-1, 1) rotate(45.000000) translate(-472.424621, -260.424621) "></path>
                    <circle id="Oval-4" stroke="#6800FC" stroke-width="3" stroke-linecap="round" stroke-linejoin="round" transform="translate(516.000000, 330.000000) scale(-1, 1) translate(-516.000000, -330.000000) " cx="516" cy="330" r="4"></circle>
                    <path d="M186.924621,329.424621 C189.626514,326.757955 192.565027,326.757955 195.740158,329.424621 C198.91529,332.091288 201.643444,332.091288 203.924621,329.424621" id="Path-5-Copy" stroke="#5374FC" stroke-width="3.6" stroke-linecap="round" stroke-linejoin="round" transform="translate(195.424621, 329.424621) scale(-1, 1) rotate(-45.000000) translate(-195.424621, -329.424621) "></path>
                    <path d="M129.924621,69.4246212 C132.626514,66.7579545 135.565027,66.7579545 138.740158,69.4246212 C141.91529,72.0912879 144.643444,72.0912879 146.924621,69.4246212" id="Path-5-Copy-2" stroke="#F3F6FB" stroke-width="3.6" opacity="0.100000001" stroke-linecap="round" stroke-linejoin="round" transform="translate(138.424621, 69.424621) scale(-1, 1) rotate(65.000000) translate(-138.424621, -69.424621) "></path>
                    <polygon id="Star-3" fill="#EA4C4C" opacity="0.670572917" transform="translate(128.020815, 91.020815) scale(-1, 1) rotate(45.000000) translate(-128.020815, -91.020815) " points="128.020815 95.2708153 123.024641 97.8974597 123.978825 92.3341375 119.936835 88.3941708 125.522728 87.5824931 128.020815 82.5208153 130.518903 87.5824931 136.104796 88.3941708 132.062805 92.3341375 133.01699 97.8974597"></polygon>
                    <path d="M467.024793,392.155436 L466.451085,388.810458 L468.881354,386.441531 L465.522804,385.953505 L464.020815,382.910142 L462.518826,385.953505 L459.160277,386.441531 L461.590546,388.810458 L461.016837,392.155436 L464.020815,390.576152 L467.024793,392.155436 Z" id="Star-3-Copy-2" stroke="#EA4C4C" stroke-width="3" transform="translate(464.020815, 388.020815) scale(-1, 1) rotate(45.000000) translate(-464.020815, -388.020815) "></path>
                    <polygon id="Star-3-Copy" fill="#F3F6FB" transform="translate(368.020815, 129.520815) scale(-1, 1) rotate(45.000000) translate(-368.020815, -129.520815) " points="368.020815 133.770815 363.024641 136.39746 363.978825 130.834138 359.936835 126.894171 365.522728 126.082493 368.020815 121.020815 370.518903 126.082493 376.104796 126.894171 372.062805 130.834138 373.01699 136.39746"></polygon>
                    <path d="M518.5,77.5 L522,77.5 C523.104569,77.5 524,78.3954305 524,79.5 C524,80.6045695 523.104569,81.5 522,81.5 L518.5,81.5 L518.5,85 C518.5,86.1045695 517.604569,87 516.5,87 C515.395431,87 514.5,86.1045695 514.5,85 L514.5,81.5 L511,81.5 C509.895431,81.5 509,80.6045695 509,79.5 C509,78.3954305 509.895431,77.5 511,77.5 L514.5,77.5 L514.5,74 C514.5,72.8954305 515.395431,72 516.5,72 C517.604569,72 518.5,72.8954305 518.5,74 L518.5,77.5 Z" id="Combined-Shape" fill="#00BD2A" opacity="0.227864583" transform="translate(516.500000, 79.500000) scale(-1, 1) rotate(45.000000) translate(-516.500000, -79.500000) "></path>
                    <path d="M369.966667,16.0333333 L372.533333,16.0333333 C373.343351,16.0333333 374,16.6899824 374,17.5 C374,18.3100176 373.343351,18.9666667 372.533333,18.9666667 L369.966667,18.9666667 L369.966667,21.5333333 C369.966667,22.343351 369.310018,23 368.5,23 C367.689982,23 367.033333,22.343351 367.033333,21.5333333 L367.033333,18.9666667 L364.466667,18.9666667 C363.656649,18.9666667 363,18.3100176 363,17.5 C363,16.6899824 363.656649,16.0333333 364.466667,16.0333333 L367.033333,16.0333333 L367.033333,13.4666667 C367.033333,12.656649 367.689982,12 368.5,12 C369.310018,12 369.966667,12.656649 369.966667,13.4666667 L369.966667,16.0333333 Z" id="Combined-Shape-Copy-2" fill="#FF0000" opacity="0.711333786" transform="translate(368.500000, 17.500000) scale(-1, 1) rotate(35.000000) translate(-368.500000, -17.500000) "></path>
                    <path d="M288,412.5 C288.647828,411.5 289.508321,411.490621 290.581478,412.471864 C291.519395,413.490621 292.339424,414 293.041564,414 C293.743704,414 294.561067,413.472775 295.493653,412.418325 C296.336895,411.472775 297.176388,411 298.012131,411 C298.847873,411 299.672843,411.472775 300.487038,412.418325 C301.354208,413.472775 302.198345,414 303.019448,414 C303.840551,414 304.658158,413.472775 305.47227,412.418325 C306.331618,411.472775 307.177428,411 308.009699,411 C308.841969,411 309.663816,411.472775 310.475238,412.418325 C310.960053,413.1423 311.468307,413.504287 312,413.504287" id="Path-6" stroke="#6800FC" stroke-width="3" stroke-linecap="round" stroke-linejoin="round" transform="translate(300.000000, 412.500000) scale(-1, 1) rotate(25.000000) translate(-300.000000, -412.500000) "></path>
                    <path d="M198.509621,402.430881 C199.157449,401.430881 200.017942,401.421502 201.091099,402.402745 C202.029016,403.421502 202.849045,403.930881 203.551185,403.930881 C204.253325,403.930881 205.070688,403.403656 206.003274,402.349206 C206.846516,401.403656 207.686009,400.930881 208.521751,400.930881 C209.357494,400.930881 210.182463,401.403656 210.996659,402.349206 C211.863829,403.403656 212.707965,403.930881 213.529069,403.930881 C214.350172,403.930881 215.167779,403.403656 215.98189,402.349206 C216.841239,401.403656 217.687049,400.930881 218.51932,400.930881 C219.35159,400.930881 220.173437,401.403656 220.984859,402.349206 C221.469674,403.073181 221.977927,403.435168 222.509621,403.435168" id="Path-6-Copy" stroke="#E9007F" stroke-width="4" opacity="0.465296649" stroke-linecap="round" stroke-linejoin="round" transform="translate(210.509621, 402.430881) scale(-1, 1) rotate(-25.000000) translate(-210.509621, -402.430881) "></path>
                    <circle id="Oval-3" stroke="#00FF89" stroke-width="4" transform="translate(126.000000, 286.000000) scale(-1, 1) translate(-126.000000, -286.000000) " cx="126" cy="286" r="8"></circle>
                    <rect id="Rectangle-6" stroke="#FF0000" stroke-width="4" opacity="0.608299366" transform="translate(636.000000, 152.000000) scale(-1, 1) rotate(6.000000) translate(-636.000000, -152.000000) " x="630" y="146" width="12" height="12"></rect>
                </g>
                <g id="jb" transform="translate(270.000000, 172.000000)">
                    <g id="Group" transform="translate(118.295082, 10.375000)" fill="#FFC300">
                        <path d="M8.09016121,0.787802703 L36.2526796,0.787802703 C39.1318034,0.787802703 41.4657944,3.11032556 41.4657944,5.9753027 L41.4657944,31.2460458 C41.4657944,48.067669 27.7618398,61.7042889 10.8571551,61.7042889 L0.890236704,61.7042889 L8.09016121,0.787802703 Z M8.18286779,10.2788642 L5.58777814,52.1900557 L12.9542794,50.1362271 C23.1462516,47.2946388 30.415357,38.3469163 31.071943,27.8347446 L31.996422,13.0335123 C31.9997679,12.9799442 32.001442,12.9262857 32.001442,12.8726142 C32.001442,11.4401256 30.8344465,10.2788642 29.3948846,10.2788642 L8.18286779,10.2788642 Z" id="Combined-Shape"></path>
                    </g>
                    <g id="Group-Copy" transform="translate(21.704918, 41.375000) scale(-1, 1) translate(-21.704918, -41.375000) translate(0.704918, 10.375000)">
                        <g id="Combined-Shape">
                            <use fill="#FFC300" fill-rule="evenodd" xlink:href="#path-1"></use>
                            <use fill="black" fill-opacity="1" filter="url(#filter-2)" xlink:href="#path-1"></use>
                        </g>
                    </g>
                    <rect id="Rectangle-2" fill="#FFC300" x="29.6721311" y="151.4375" width="101.655738" height="3.890625" rx="1.9453125"></rect>
                    <g id="Combined-Shape">
                        <use fill="#FFC300" fill-rule="evenodd" xlink:href="#path-3"></use>
                        <use fill="black" fill-opacity="1" filter="url(#filter-4)" xlink:href="#path-3"></use>
                    </g>
                    <rect id="Rectangle-2-Copy" fill="#FFC300" x="12.7295082" y="163.109375" width="24.7622951" height="3.890625" rx="1.9453125"></rect>
                    <rect id="Rectangle" fill="#EC610A" x="47.9180328" y="116.71875" width="65.1639344" height="35.015625"></rect>
                    <rect id="Rectangle-Copy" fill="#FFC300" x="58.3442623" y="124.5" width="44.3114754" height="19.453125"></rect>
                    <rect id="Rectangle-2-Copy-2" fill="#FFC300" x="51.8278689" y="163.109375" width="19.5491803" height="3.890625" rx="1.9453125"></rect>
                    <g id="Path">
                        <use fill="black" fill-opacity="1" filter="url(#filter-7)" xlink:href="#path-6"></use>
                        <use fill="url(#radialGradient-5)" fill-rule="evenodd" xlink:href="#path-6"></use>
                    </g>
                    <g id="eos" transform="translate(61.558824, 15.810056)" fill="#EC610A">
                        <path d="M6.31311776,19.1770925 L8.97591519,27.5816559 L1.53594616,40.9705598 L6.31311776,19.1770925 Z M29.7332756,27.5816559 L32.3964135,19.1770925 L37.1732446,40.9705598 L29.7332756,27.5816559 Z M29.1177888,29.5245208 L37.9776668,45.4688357 L20.6660793,56.1991924 L29.1177888,29.5245208 Z M18.0434519,56.1991924 L0.731523975,45.4688357 L9.59140199,29.5245208 L18.0434519,56.1991924 Z M19.3547656,11.9547639 L28.1312397,27.7492524 L19.3547656,55.4490152 L10.5779511,27.7492524 L19.3547656,11.9547639 Z M18.6180878,10.2300183 L9.96246428,25.8063874 L7.00009363,16.4561757 L18.6180878,0.0763189732 L18.6180878,10.2300183 Z M20.0914434,0.0763189732 L31.7094376,16.4561757 L28.7467265,25.8063874 L20.0914434,10.2300183 L20.0914434,0.0763189732 Z" id="Fill-628"></path>
                    </g>
                    <path d="M44.7293948,36.5996311 C45.4286167,48.7515853 47.3862922,58.0598124 50.6024213,64.5243125" id="Path-2" stroke="#EC610A" stroke-width="2.6" stroke-linecap="round" stroke-linejoin="round"></path>
                    <path d="M54.6982285,72.7344453 C57.0780619,76.2583596 59.0408412,78.7748713 60.5865664,80.2839801" id="Path-3" stroke="#EC610A" stroke-width="2.6" stroke-linecap="round" stroke-linejoin="round"></path>
                    <rect id="Rectangle-2-Copy-3" fill="#FFC300" x="79.1967213" y="163.109375" width="13.0327869" height="3.890625" rx="1.9453125"></rect>
                    <rect id="Rectangle-2-Copy-4" fill="#FFC300" x="105.262295" y="163.109375" width="53.4344262" height="3.890625" rx="1.9453125"></rect>
                </g>
            </g>
        </g>
    </g>
</svg>