<?xml version="1.0" encoding="UTF-8"?>
<svg width="1365px" height="675px" viewBox="0 0 1365 675" version="1.1" xmlns="http://www.w3.org/2000/svg" xmlns:xlink="http://www.w3.org/1999/xlink">
    <!-- Generator: Sketch 51.2 (57519) - http://www.bohemiancoding.com/sketch -->
    <title>Group</title>
    <desc>Created with Sketch.</desc>
    <defs></defs>
    <g id="Page-1" stroke="none" stroke-width="1" fill="none" fill-rule="evenodd">
        <g id="Desktop-HD-Copy-4" transform="translate(-56.000000, -4.000000)" fill-rule="nonzero">
            <g id="Group" transform="translate(56.000000, 4.000000)">
                <circle id="Oval-6" fill="#D8D8D8" opacity="0.322488839" cx="10" cy="98" r="4"></circle>
                <circle id="Oval-6-Copy" fill="#D8D8D8" opacity="0.322488839" cx="134" cy="145" r="4"></circle>
                <circle id="Oval-6-Copy-2" fill="#D8D8D8" opacity="0.322488839" cx="190" cy="32" r="4"></circle>
                <circle id="Oval-6-Copy-3" fill="#D8D8D8" opacity="0.322488839" cx="293" cy="55" r="4"></circle>
                <circle id="Oval-6-Copy-4" fill="#D8D8D8" opacity="0.322488839" cx="384" cy="40" r="4"></circle>
                <circle id="Oval-6-Copy-5" fill="#D8D8D8" opacity="0.322488839" cx="428" cy="133" r="4"></circle>
                <circle id="Oval-6-Copy-6" fill="#D8D8D8" opacity="0.322488839" cx="545" cy="199" r="4"></circle>
                <circle id="Oval-6-Copy-15" fill="#D8D8D8" opacity="0.322488839" cx="579" cy="69" r="4"></circle>
                <circle id="Oval-6-Copy-16" fill="#D8D8D8" opacity="0.322488839" cx="563" cy="15" r="4"></circle>
                <circle id="Oval-6-Copy-17" fill="#D8D8D8" opacity="0.322488839" cx="703" cy="4" r="4"></circle>
                <circle id="Oval-6-Copy-17" fill="#D8D8D8" opacity="0.322488839" cx="660" cy="266" r="4"></circle>
                <circle id="Oval-6-Copy-18" fill="#D8D8D8" opacity="0.322488839" cx="780" cy="197" r="4"></circle>
                <circle id="Oval-6-Copy-19" fill="#D8D8D8" opacity="0.322488839" cx="962" cy="94" r="4"></circle>
                <circle id="Oval-6-Copy-20" fill="#D8D8D8" opacity="0.322488839" cx="1084" cy="191" r="4"></circle>
                <circle id="Oval-6-Copy-21" fill="#D8D8D8" opacity="0.322488839" cx="1084" cy="318" r="4"></circle>
                <circle id="Oval-6-Copy-22" fill="#D8D8D8" opacity="0.322488839" cx="1270" cy="392" r="4"></circle>
                <circle id="Oval-6-Copy-23" fill="#D8D8D8" opacity="0.322488839" cx="1266" cy="290" r="4"></circle>
                <circle id="Oval-6-Copy-24" fill="#D8D8D8" opacity="0.322488839" cx="1327" cy="452" r="4"></circle>
                <circle id="Oval-6-Copy-25" fill="#D8D8D8" opacity="0.322488839" cx="1338" cy="387" r="4"></circle>
                <circle id="Oval-6-Copy-17" fill="#D8D8D8" opacity="0.322488839" cx="1192" cy="98" r="4"></circle>
                <circle id="Oval-6-Copy-17" fill="#D8D8D8" opacity="0.322488839" cx="1266" cy="615" r="4"></circle>
                <circle id="Oval-6-Copy-26" fill="#D8D8D8" opacity="0.322488839" cx="1361" cy="671" r="4"></circle>
                <circle id="Oval-6-Copy-17" fill="#D8D8D8" opacity="0.322488839" cx="1031" cy="480" r="4"></circle>
                <circle id="Oval-6-Copy-14" fill="#D8D8D8" opacity="0.322488839" cx="635" cy="139" r="4"></circle>
                <circle id="Oval-6-Copy-7" fill="#D8D8D8" opacity="0.322488839" cx="370" cy="179" r="4"></circle>
                <circle id="Oval-6-Copy-8" fill="#D8D8D8" opacity="0.322488839" cx="281" cy="286" r="4"></circle>
                <circle id="Oval-6-Copy-9" fill="#D8D8D8" opacity="0.322488839" cx="220" cy="258" r="4"></circle>
                <circle id="Oval-6-Copy-10" fill="#D8D8D8" opacity="0.322488839" cx="101" cy="320" r="4"></circle>
                <circle id="Oval-6-Copy-11" fill="#D8D8D8" opacity="0.322488839" cx="117" cy="444" r="4"></circle>
                <circle id="Oval-6-Copy-12" fill="#D8D8D8" opacity="0.322488839" cx="4" cy="409" r="4"></circle>
                <circle id="Oval-6-Copy-13" fill="#D8D8D8" opacity="0.322488839" cx="16" cy="541" r="4"></circle>
                <polyline id="Path-3" stroke="#979797" opacity="0.5" points="135 148 220.38876 259 367 181.644078"></polyline>
                <polyline id="Path-4" stroke="#979797" opacity="0.6" points="10.6468397 101 100 320.054398 4 409"></polyline>
                <polyline id="Path-5" stroke="#979797" opacity="0.6" points="192 34 293.498564 56 384 40.7186332"></polyline>
                <polyline id="Path-6" stroke="#979797" opacity="0.6" points="1084 194 1084 318.237087 1265.87997 290.737668 1270 391"></polyline>
                <polyline id="Path-7" stroke="#979797" opacity="0.6" points="563.447725 15 577.624789 69.4432754 544 201.321061 657 266"></polyline>
                <polyline id="Path-8" stroke="#979797" opacity="0.6" points="781 197 962.168884 96 1191 96"></polyline>
                <polyline id="Path-9" stroke="#979797" opacity="0.6" points="1337.60773 389 1327.14221 451.179469 1362 671 1265 616.617856"></polyline>
            </g>
        </g>
    </g>
</svg>